<svg preserveAspectRatio="none" width="100%" height="100%" overflow="visible" style="display: block;" viewBox="0 0 24 26" fill="none" xmlns="http://www.w3.org/2000/svg">
<g id="Group">
<g id="Vector">
</g>
<path id="Vector_2" d="M13.06 3.55658C12.7788 3.25227 12.3975 3.08135 12 3.08135C11.6025 3.08135 11.2213 3.25227 10.94 3.55658L5.281 9.68392C4.99961 9.98876 4.84152 10.4022 4.84152 10.8333C4.84152 11.2644 4.99961 11.6779 5.281 11.9827C5.5624 12.2876 5.94405 12.4589 6.342 12.4589C6.73995 12.4589 7.12161 12.2876 7.403 11.9827L10.5 8.62875V21.125C10.5 21.556 10.658 21.9693 10.9393 22.274C11.2206 22.5788 11.6022 22.75 12 22.75C12.3978 22.75 12.7794 22.5788 13.0607 22.274C13.342 21.9693 13.5 21.556 13.5 21.125V8.62875L16.596 11.9827C16.7353 12.1337 16.9007 12.2534 17.0828 12.3351C17.2648 12.4168 17.46 12.4589 17.657 12.4589C17.854 12.4589 18.0492 12.4168 18.2312 12.3351C18.4133 12.2534 18.5787 12.1337 18.718 11.9827C18.8573 11.8318 18.9679 11.6526 19.0433 11.4554C19.1187 11.2582 19.1575 11.0468 19.1575 10.8333C19.1575 10.6199 19.1187 10.4085 19.0433 10.2113C18.9679 10.0141 18.8573 9.83486 18.718 9.68392L13.06 3.55658Z" fill="var(--fill-0, #0D57E2)"/>
</g>
</svg>
