<svg preserveAspectRatio="none" width="100%" height="100%" overflow="visible" style="display: block;" viewBox="0 0 32 32" fill="none" xmlns="http://www.w3.org/2000/svg">
<g id="carbon:cafe">
<path id="Vector" d="M2 28H30V30H2V28ZM24.5 11H8C7.46957 11 6.96086 11.2107 6.58579 11.5858C6.21071 11.9609 6 12.4696 6 13V21C6.00159 22.3256 6.52888 23.5964 7.46622 24.5338C8.40356 25.4711 9.6744 25.9984 11 26H19C20.3256 25.9984 21.5964 25.4711 22.5338 24.5338C23.4711 23.5964 23.9984 22.3256 24 21V20H24.5C25.6935 20 26.8381 19.5259 27.682 18.682C28.5259 17.8381 29 16.6935 29 15.5C29 14.3065 28.5259 13.1619 27.682 12.318C26.8381 11.4741 25.6935 11 24.5 11ZM22 21C21.9992 21.7954 21.6829 22.558 21.1204 23.1204C20.558 23.6829 19.7954 23.9992 19 24H11C10.2046 23.9992 9.44199 23.6829 8.87956 23.1204C8.31712 22.558 8.00079 21.7954 8 21V13H22V21ZM24.5 18H24V13H24.5C25.163 13 25.7989 13.2634 26.2678 13.7322C26.7366 14.2011 27 14.837 27 15.5C27 16.163 26.7366 16.7989 26.2678 17.2678C25.7989 17.7366 25.163 18 24.5 18ZM19 9H17V8.854C17.0012 8.48237 16.8984 8.11782 16.7031 7.80163C16.5078 7.48545 16.2279 7.23027 15.895 7.065L13.21 5.724C12.5443 5.39346 11.9844 4.8831 11.5938 4.25073C11.2032 3.61837 10.9975 2.88926 11 2.146V1H13V2.146C12.9989 2.51774 13.1019 2.88236 13.2973 3.19856C13.4928 3.51475 13.773 3.76987 14.106 3.935L16.789 5.276C17.4549 5.6064 18.015 6.1167 18.4057 6.74908C18.7965 7.38145 19.0024 8.11063 19 8.854V9Z" fill="var(--fill-0, #4F46E5)"/>
</g>
</svg>
