<svg preserveAspectRatio="none" width="100%" height="100%" overflow="visible" style="display: block;" viewBox="0 0 32 32" fill="none" xmlns="http://www.w3.org/2000/svg">
<g id="fluent:food-32-regular">
<path id="Vector" d="M6.68 2C5.542 2 4.505 2.757 4.236 3.916C3.936 5.21 3.5 7.43 3.5 9.5C3.49977 10.5547 3.75619 11.5936 4.24715 12.5271C4.7381 13.4606 5.44883 14.2606 6.318 14.858C6.786 15.179 7 15.571 7 15.89C6.99967 15.9234 6.99767 15.9568 6.994 15.99C6.936 16.48 6.689 18.57 6.456 20.734C6.226 22.862 6 25.159 6 26C6 27.0609 6.42143 28.0783 7.17157 28.8284C7.92172 29.5786 8.93913 30 10 30C11.0609 30 12.0783 29.5786 12.8284 28.8284C13.5786 28.0783 14 27.0609 14 26C14 25.16 13.773 22.862 13.544 20.734C13.311 18.57 13.064 16.479 13.006 15.989C13.0023 15.9558 13.0003 15.9224 13 15.889C13 15.571 13.214 15.179 13.681 14.858C14.5504 14.2607 15.2613 13.4607 15.7524 12.5273C16.2435 11.5938 16.5001 10.5548 16.5 9.5C16.5 7.429 16.065 5.209 15.764 3.916C15.495 2.757 14.458 2 13.32 2C12.7259 1.99911 12.15 2.20486 11.691 2.582C11.2083 2.20434 10.6129 1.99942 10 2C9.362 2 8.775 2.217 8.309 2.582C7.84998 2.20486 7.27408 1.99911 6.68 2ZM12.75 4.57C12.75 4.41883 12.8101 4.27385 12.9169 4.16695C13.0238 4.06006 13.1688 4 13.32 4C13.58 4 13.77 4.166 13.816 4.369C14.106 5.618 14.5 7.661 14.5 9.5C14.5001 10.2304 14.3225 10.9498 13.9824 11.5962C13.6423 12.2426 13.15 12.7964 12.548 13.21C11.758 13.753 11 14.683 11 15.89C11 16.0013 11.0067 16.1133 11.02 16.226C11.078 16.713 11.324 18.796 11.556 20.948C11.79 23.135 12 25.295 12 26C12 26.5304 11.7893 27.0391 11.4142 27.4142C11.0391 27.7893 10.5304 28 10 28C9.46957 28 8.96086 27.7893 8.58579 27.4142C8.21071 27.0391 8 26.5304 8 26C8 25.295 8.209 23.135 8.444 20.948C8.676 18.796 8.922 16.713 8.98 16.226C8.99333 16.1127 9 16.0007 9 15.89C9 14.683 8.241 13.753 7.452 13.21C6.84998 12.7964 6.35767 12.2426 6.01759 11.5962C5.6775 10.9498 5.49986 10.2304 5.5 9.5C5.5 7.66 5.894 5.618 6.184 4.369C6.2117 4.25988 6.27613 4.16361 6.36646 4.09641C6.4568 4.02921 6.56752 3.99516 6.68 4C6.83117 4 6.97616 4.06006 7.08305 4.16695C7.18995 4.27385 7.25 4.41883 7.25 4.57V10C7.25 10.2652 7.35536 10.5196 7.54289 10.7071C7.73043 10.8946 7.98478 11 8.25 11C8.51522 11 8.76957 10.8946 8.95711 10.7071C9.14464 10.5196 9.25 10.2652 9.25 10V4.75C9.25 4.55109 9.32902 4.36033 9.46967 4.21967C9.61032 4.07902 9.80109 4 10 4C10.1989 4 10.3897 4.07902 10.5303 4.21967C10.671 4.36033 10.75 4.55109 10.75 4.75V10C10.75 10.2652 10.8554 10.5196 11.0429 10.7071C11.2304 10.8946 11.4848 11 11.75 11C12.0152 11 12.2696 10.8946 12.4571 10.7071C12.6446 10.5196 12.75 10.2652 12.75 10V4.57ZM20 9.5C19.9998 8.12774 20.5126 6.80497 21.4377 5.79142C22.3628 4.77786 23.6334 4.14675 25 4.022V15C25 15.279 25.055 15.908 25.127 16.658C25.202 17.435 25.304 18.416 25.411 19.45V19.453C25.694 22.164 26 25.136 26 26C26 26.5304 25.7893 27.0391 25.4142 27.4142C25.0391 27.7893 24.5304 28 24 28C23.4696 28 22.9609 27.7893 22.5858 27.4142C22.2107 27.0391 22 26.5304 22 26C22 25.286 22.212 22.885 22.448 20.456C22.6191 18.7073 22.7974 16.9593 22.983 15.212C22.9887 15.1591 22.9931 15.1061 22.996 15.053C23.0032 14.9174 22.9827 14.7817 22.9357 14.6543C22.8888 14.5268 22.8163 14.4103 22.7229 14.3117C22.6294 14.2132 22.5168 14.1348 22.392 14.0812C22.2672 14.0276 22.1328 13.9999 21.997 14H20.5C20.3674 14 20.2402 13.9473 20.1464 13.8536C20.0527 13.7598 20 13.6326 20 13.5V9.5ZM25.5 2C23.5109 2 21.6032 2.79018 20.1967 4.1967C18.7902 5.60323 18 7.51088 18 9.5V13.5C18 14.163 18.2634 14.7989 18.7322 15.2678C19.2011 15.7366 19.837 16 20.5 16H20.889C20.7404 17.4202 20.5967 18.8408 20.458 20.262C20.228 22.632 20 25.162 20 26C20 27.0609 20.4214 28.0783 21.1716 28.8284C21.9217 29.5786 22.9391 30 24 30C25.0609 30 26.0783 29.5786 26.8284 28.8284C27.5786 28.0783 28 27.0609 28 26C28 25.015 27.683 21.967 27.414 19.369L27.401 19.247C27.3036 18.3203 27.2093 17.3933 27.118 16.466C27.04 15.668 27 15.158 27 15V3C27 2.73479 26.8946 2.48043 26.7071 2.2929C26.5196 2.10536 26.2652 2 26 2H25.5Z" fill="var(--fill-0, #4BCD82)"/>
</g>
</svg>
