<svg preserveAspectRatio="none" width="100%" height="100%" overflow="visible" style="display: block;" viewBox="0 0 21.334 26.6667" fill="none" xmlns="http://www.w3.org/2000/svg">
<g id="Group">
<path id="Vector" d="M1.33359 20L8.00026 21.3333L9.00026 19.3333M16.0003 25.3333V20L10.6669 16L12.0003 8M12.0003 2.66667C12.0003 3.02029 12.1407 3.35943 12.3908 3.60948C12.6408 3.85952 12.98 4 13.3336 4C13.6872 4 14.0264 3.85952 14.2764 3.60948C14.5264 3.35943 14.6669 3.02029 14.6669 2.66667C14.6669 2.31304 14.5264 1.97391 14.2764 1.72386C14.0264 1.47381 13.6872 1.33333 13.3336 1.33333C12.98 1.33333 12.6408 1.47381 12.3908 1.72386C12.1407 1.97391 12.0003 2.31304 12.0003 2.66667Z" stroke="var(--stroke-0, #F05555)" stroke-width="2.66667" stroke-linecap="round" stroke-linejoin="round"/>
<path id="Vector_2" d="M5.33367 13.3333V9.33333L12.0003 8L16.0003 12L20.0003 13.3333" stroke="var(--stroke-0, #F05555)" stroke-width="2.66667" stroke-linecap="round" stroke-linejoin="round"/>
</g>
</svg>
