<svg preserveAspectRatio="none" width="100%" height="100%" overflow="visible" style="display: block;" viewBox="0 0 32 32" fill="none" xmlns="http://www.w3.org/2000/svg">
<g id="Frame 11635">
<g id="Vector">
<path fill-rule="evenodd" clip-rule="evenodd" d="M17.8623 28.9386V26.1256V26.1256C17.6356 25.503 17.4361 25.2888 17.3221 25.1837C17.2483 25.1157 17.1797 25.0649 17.049 24.9681C17.033 24.9562 17.0161 24.9437 16.9981 24.9303C16.8483 24.8191 16.6267 24.6522 16.4106 24.4182C16.2603 24.2554 16.131 24.1073 16.0194 23.9755C15.8897 24.1378 15.7037 24.3566 15.4656 24.5495C14.9752 24.9467 14.7281 25.1661 14.5549 25.3731C14.4093 25.5472 14.2886 25.7467 14.1541 26.1213V26.1213L14.1541 28.9386H17.8623ZM12.8455 25.7311C12.8007 25.8571 12.7807 25.9895 12.7807 26.1222V30.2222H19.2357V26.1256C19.2357 25.9907 19.2147 25.8555 19.1685 25.7276C18.7595 24.5956 18.3109 24.2641 17.9029 23.9626C17.7443 23.8454 17.5919 23.7328 17.4502 23.5794C17.1994 23.3078 17.0122 23.0797 16.8596 22.8937C16.5106 22.4685 16.3426 22.2637 16.0082 22.2637C15.6392 22.2637 15.3663 22.6227 15.0854 22.9921C14.9219 23.2072 14.7556 23.4259 14.5661 23.5794C13.5967 24.3647 13.1937 24.7521 12.8455 25.7311Z" fill="var(--fill-0, #0D57E2)"/>
<path fill-rule="evenodd" clip-rule="evenodd" d="M16.0467 4.91602C15.6679 6.23541 15.2273 7.65632 14.706 9.13669H17.3339C16.8248 7.67704 16.4032 6.24967 16.0467 4.91602ZM16.8069 2.33356C16.6321 1.60123 15.5333 1.58919 15.3416 2.31781C14.7942 4.39789 14.0945 6.85704 13.1369 9.47197C12.9675 9.93466 13.3324 10.4203 13.8556 10.4203H18.18C18.7054 10.4203 19.0707 9.93089 18.9001 9.4664C17.9665 6.92458 17.3095 4.43905 16.8069 2.33356Z" fill="var(--fill-0, #0D57E2)"/>
<path fill-rule="evenodd" clip-rule="evenodd" d="M12.2009 13.0858L11.8818 14.4336H20.2376L19.9184 13.0858H12.2009ZM11.7047 11.8021C11.3504 11.8021 11.0438 12.0323 10.9672 12.3556L10.3745 14.8587C10.2701 15.2994 10.629 15.7172 11.112 15.7172H21.0073C21.4903 15.7172 21.8492 15.2994 21.7448 14.8587L21.1521 12.3556C21.0756 12.0323 20.7689 11.8021 20.4146 11.8021H11.7047Z" fill="var(--fill-0, #0D57E2)"/>
<path fill-rule="evenodd" clip-rule="evenodd" d="M13.4095 10.4543L13.1676 11.8021H18.8487L18.6068 10.4543H13.4095ZM12.8865 9.17069C12.5176 9.17069 12.2026 9.4198 12.1415 9.75988L11.6923 12.263C11.615 12.6935 11.9701 13.0858 12.4372 13.0858H19.5791C20.0462 13.0858 20.4013 12.6935 20.324 12.263L19.8747 9.75988C19.8137 9.4198 19.4987 9.17069 19.1298 9.17069H12.8865Z" fill="var(--fill-0, #0D57E2)"/>
<path fill-rule="evenodd" clip-rule="evenodd" d="M26.3017 25.995C25.9316 25.5641 25.6341 25.0814 25.442 24.5589C24.843 22.9297 24.5016 21.4904 24.2918 18.738C24.2181 17.7715 23.8821 16.8366 23.287 16.0432L22.6609 15.2085C22.3267 14.763 21.7811 14.4978 21.199 14.4978H10.801C10.2189 14.4978 9.6733 14.763 9.33911 15.2085L8.71297 16.0432C8.11788 16.8366 7.78188 17.7715 7.70822 18.738C7.49842 21.4904 7.15699 22.9297 6.55801 24.5589C6.3659 25.0814 6.06836 25.5641 5.69835 25.995L3.86047 28.1351C3.13898 28.9753 3.77891 30.2222 4.93154 30.2222H27.0685C28.2211 30.2222 28.861 28.9753 28.1395 28.1351L26.3017 25.995ZM27.0685 28.9386L25.2306 26.7985C24.7729 26.2654 24.3924 25.654 24.1431 24.9761C23.4989 23.2239 23.1386 21.6723 22.9219 18.8292C22.8647 18.0788 22.6052 17.3703 22.1625 16.7801L21.5363 15.9454C21.4592 15.8426 21.3333 15.7814 21.199 15.7814H10.801C10.6667 15.7814 10.5408 15.8426 10.4637 15.9454L9.83753 16.7801C9.39482 17.3703 9.13534 18.0788 9.07815 18.8292C8.86144 21.6723 8.50108 23.2239 7.85686 24.9761C7.6076 25.654 7.22715 26.2654 6.76942 26.7985L4.93154 28.9386H27.0685Z" fill="var(--fill-0, #0D57E2)"/>
</g>
<g id="Vector_2">
<path fill-rule="evenodd" clip-rule="evenodd" d="M24.0298 14.4058C23.7863 15.2305 23.5031 16.1185 23.168 17.0438H24.8573C24.53 16.1315 24.259 15.2394 24.0298 14.4058ZM24.5185 12.7918C24.4062 12.3341 23.6998 12.3266 23.5765 12.782C23.2246 14.082 22.8378 15.2546 22.2222 16.8889C22.2222 16.8889 22.5693 17.3963 22.7148 17.846H23.0119H23.168H25.4012C25.739 17.846 25.9738 17.5401 25.8642 17.2498C25.8409 17.1882 25.8178 17.1266 25.7951 17.065C25.2314 15.541 24.8291 14.0567 24.5185 12.7918Z" fill="var(--fill-0, #0D57E2)"/>
<path d="M27.2188 21.1566H24V21.1967H27.342C27.4284 21.1967 27.5093 21.235 27.5589 21.2992L27.9614 21.8209C28.246 22.1898 28.4128 22.6326 28.4496 23.1016C28.5889 24.8785 28.8206 25.8483 29.2347 26.9434C29.3949 27.3671 29.6395 27.7492 29.9338 28.0824L31.1153 29.42H27.2636L27.2636 30.2222H31.1153C31.8562 30.2222 32.2676 29.4429 31.8038 28.9178L30.6223 27.5802C30.3844 27.3109 30.1932 27.0092 30.0697 26.6826C29.6846 25.6644 29.4651 24.7648 29.3302 23.0446C29.2829 22.4405 29.0669 21.8562 28.6843 21.3604L28.2818 20.8387C28.1269 20.6379 27.9013 20.4956 27.6471 20.4319L27.6929 20.62C27.76 20.8955 27.5293 21.1566 27.2188 21.1566Z" fill="var(--fill-0, #0D57E2)"/>
<path d="M27.2188 21.1566C27.5293 21.1566 27.76 20.8955 27.6929 20.62L27.6471 20.4319C27.5489 20.4073 27.4464 20.3944 27.342 20.3944H24V21.1566H27.2188Z" fill="var(--fill-0, #0D57E2)"/>
<path d="M26.5188 19.5119L26.724 20.3543H23.5765V21.1566H24V20.3944H27.342C27.4464 20.3944 27.5489 20.4073 27.6471 20.4319L27.3119 19.0556C27.2627 18.8535 27.0655 18.7097 26.8378 18.7097H26.7264L26.7795 18.9977C26.8292 19.2668 26.6009 19.5119 26.3006 19.5119H26.5188Z" fill="var(--fill-0, #0D57E2)"/>
<path d="M26.3006 19.5119C26.6009 19.5119 26.8292 19.2668 26.7795 18.9977L26.7264 18.7097H25.8311H23.5765V19.5119H26.3006Z" fill="var(--fill-0, #0D57E2)"/>
<path d="M25.8642 17.2498C25.9738 17.5401 25.739 17.846 25.4012 17.846H23.168H23.0119V17.8673H23.6893H25.6756L25.8311 18.7097H26.7264L26.4907 17.4333C26.4515 17.2207 26.249 17.065 26.0118 17.065H25.7951C25.8178 17.1266 25.8409 17.1882 25.8642 17.2498Z" fill="var(--fill-0, #0D57E2)"/>
</g>
<g id="Vector_3">
<path fill-rule="evenodd" clip-rule="evenodd" d="M7.97018 14.4058C8.21368 15.2305 8.4969 16.1185 8.83203 17.0438H7.14267C7.46995 16.1315 7.741 15.2394 7.97018 14.4058ZM7.48147 12.7918C7.59384 12.3341 8.30022 12.3266 8.42348 12.782C8.77535 14.082 9.16219 15.2546 9.77778 16.8889C9.77778 16.8889 9.43073 17.3963 9.28523 17.846H8.98808H8.83203H6.59878C6.261 17.846 6.02616 17.5401 6.13584 17.2498C6.15913 17.1882 6.18216 17.1266 6.20492 17.065C6.76863 15.541 7.17092 14.0567 7.48147 12.7918Z" fill="var(--fill-0, #0D57E2)"/>
<path d="M4.7812 21.1566H8.00001V21.1967H4.65799C4.57163 21.1967 4.49069 21.235 4.44111 21.2992L4.0386 21.8209C3.754 22.1898 3.58719 22.6326 3.55042 23.1016C3.41111 24.8785 3.17945 25.8483 2.76531 26.9434C2.60507 27.3671 2.36049 27.7492 2.06624 28.0824L0.884746 29.42H4.73644L4.73635 30.2222H0.884744C0.143767 30.2222 -0.267612 29.4429 0.1962 28.9178L1.37769 27.5802C1.61556 27.3109 1.80684 27.0092 1.93033 26.6826C2.31539 25.6644 2.53488 24.7648 2.66975 23.0446C2.71711 22.4405 2.93311 21.8562 3.31566 21.3604L3.71818 20.8387C3.87312 20.6379 4.09873 20.4956 4.35287 20.4319L4.30707 20.62C4.23998 20.8955 4.47071 21.1566 4.7812 21.1566Z" fill="var(--fill-0, #0D57E2)"/>
<path d="M4.7812 21.1566C4.47071 21.1566 4.23998 20.8955 4.30707 20.62L4.35287 20.4319C4.45113 20.4073 4.55365 20.3944 4.65799 20.3944H8.00001V21.1566H4.7812Z" fill="var(--fill-0, #0D57E2)"/>
<path d="M5.48121 19.5119L5.27604 20.3543H8.42348V21.1566H8.00001V20.3944H4.65799C4.55365 20.3944 4.45113 20.4073 4.35287 20.4319L4.6881 19.0556C4.73731 18.8535 4.93446 18.7097 5.16222 18.7097H5.27363L5.22046 18.9977C5.17078 19.2668 5.39908 19.5119 5.69936 19.5119H5.48121Z" fill="var(--fill-0, #0D57E2)"/>
<path d="M5.69936 19.5119C5.39908 19.5119 5.17078 19.2668 5.22046 18.9977L5.27363 18.7097H6.16887H8.42348V19.5119H5.69936Z" fill="var(--fill-0, #0D57E2)"/>
<path d="M6.13584 17.2498C6.02616 17.5401 6.261 17.846 6.59878 17.846H8.83203H8.98808V17.8673H8.31066H6.32439L6.16887 18.7097H5.27363L5.50928 17.4333C5.54852 17.2207 5.751 17.065 5.98818 17.065H6.20492C6.18216 17.1266 6.15913 17.1882 6.13584 17.2498Z" fill="var(--fill-0, #0D57E2)"/>
</g>
</g>
</svg>
