<svg preserveAspectRatio="none" width="100%" height="100%" overflow="visible" style="display: block;" viewBox="0 0 22.5687 26.6667" fill="none" xmlns="http://www.w3.org/2000/svg">
<g id="Group">
<path id="Vector" d="M11.2843 0C12.6988 0 14.0554 0.561903 15.0556 1.5621C16.0558 2.56229 16.6177 3.91885 16.6177 5.33333H19.331C20.0219 5.33324 20.6859 5.60132 21.1831 6.08108C21.6803 6.56085 21.9718 7.21486 21.9963 7.90533L22.567 23.9053C22.5797 24.2632 22.5202 24.6199 22.3921 24.9543C22.264 25.2887 22.0698 25.5938 21.8212 25.8515C21.5726 26.1092 21.2746 26.3142 20.945 26.4542C20.6155 26.5943 20.2611 26.6665 19.903 26.6667H2.66568C2.3076 26.6665 1.95322 26.5943 1.62367 26.4542C1.29412 26.3142 0.996145 26.1092 0.747529 25.8515C0.498912 25.5938 0.304742 25.2887 0.1766 24.9543C0.0484582 24.6199 -0.0110308 24.2632 0.00168097 23.9053L0.572348 7.90533C0.596875 7.21486 0.888436 6.56085 1.38561 6.08108C1.88279 5.60132 2.54677 5.33324 3.23768 5.33333H5.95101C5.95101 3.91885 6.51292 2.56229 7.51311 1.5621C8.51331 0.561903 9.86986 0 11.2843 0ZM5.95101 8H3.23768L2.66568 24H19.903L19.331 8H16.6177V9.33333C16.6173 9.67317 16.4872 10 16.2539 10.2472C16.0206 10.4943 15.7017 10.643 15.3625 10.6629C15.0232 10.6828 14.6892 10.5724 14.4286 10.3543C14.168 10.1362 14.0005 9.82679 13.9603 9.48933L13.951 9.33333V8H8.61768V9.33333C8.6173 9.67317 8.48718 10 8.25388 10.2472C8.02059 10.4943 7.70174 10.643 7.36249 10.6629C7.02323 10.6828 6.68918 10.5724 6.42857 10.3543C6.16797 10.1362 6.00049 9.82679 5.96035 9.48933L5.95101 9.33333V8ZM11.2843 2.66667C10.6116 2.66645 9.96359 2.92054 9.47028 3.378C8.97698 3.83545 8.67481 4.46246 8.62435 5.13333L8.61768 5.33333H13.951C13.951 4.62609 13.6701 3.94781 13.17 3.44771C12.6699 2.94762 11.9916 2.66667 11.2843 2.66667Z" fill="var(--fill-0, #FFDC2D)"/>
</g>
</svg>
