<svg preserveAspectRatio="none" width="100%" height="100%" overflow="visible" style="display: block;" viewBox="0 0 20 16" fill="none" xmlns="http://www.w3.org/2000/svg">
<g id="Container">
<path id="Icon" d="M10 13C10.2833 13 10.5208 12.9042 10.7125 12.7125C10.9042 12.5208 11 12.2833 11 12C11 11.7167 10.9042 11.4792 10.7125 11.2875C10.5208 11.0958 10.2833 11 10 11C9.71667 11 9.47917 11.0958 9.2875 11.2875C9.09583 11.4792 9 11.7167 9 12C9 12.2833 9.09583 12.5208 9.2875 12.7125C9.47917 12.9042 9.71667 13 10 13V13M10 9C10.2833 9 10.5208 8.90417 10.7125 8.7125C10.9042 8.52083 11 8.28333 11 8C11 7.71667 10.9042 7.47917 10.7125 7.2875C10.5208 7.09583 10.2833 7 10 7C9.71667 7 9.47917 7.09583 9.2875 7.2875C9.09583 7.47917 9 7.71667 9 8C9 8.28333 9.09583 8.52083 9.2875 8.7125C9.47917 8.90417 9.71667 9 10 9V9M10 5C10.2833 5 10.5208 4.90417 10.7125 4.7125C10.9042 4.52083 11 4.28333 11 4C11 3.71667 10.9042 3.47917 10.7125 3.2875C10.5208 3.09583 10.2833 3 10 3C9.71667 3 9.47917 3.09583 9.2875 3.2875C9.09583 3.47917 9 3.71667 9 4C9 4.28333 9.09583 4.52083 9.2875 4.7125C9.47917 4.90417 9.71667 5 10 5V5M18 16H2C1.45 16 0.979167 15.8042 0.5875 15.4125C0.195833 15.0208 0 14.55 0 14V10C0.55 10 1.02083 9.80417 1.4125 9.4125C1.80417 9.02083 2 8.55 2 8C2 7.45 1.80417 6.97917 1.4125 6.5875C1.02083 6.19583 0.55 6 0 6V2C0 1.45 0.195833 0.979167 0.5875 0.5875C0.979167 0.195833 1.45 0 2 0H18C18.55 0 19.0208 0.195833 19.4125 0.5875C19.8042 0.979167 20 1.45 20 2V6C19.45 6 18.9792 6.19583 18.5875 6.5875C18.1958 6.97917 18 7.45 18 8C18 8.55 18.1958 9.02083 18.5875 9.4125C18.9792 9.80417 19.45 10 20 10V14C20 14.55 19.8042 15.0208 19.4125 15.4125C19.0208 15.8042 18.55 16 18 16V16M18 14V14V14V11.45C17.3833 11.0833 16.8958 10.5958 16.5375 9.9875C16.1792 9.37917 16 8.71667 16 8C16 7.28333 16.1792 6.62083 16.5375 6.0125C16.8958 5.40417 17.3833 4.91667 18 4.55V2V2V2H2V2V2V4.55C2.61667 4.91667 3.10417 5.40417 3.4625 6.0125C3.82083 6.62083 4 7.28333 4 8C4 8.71667 3.82083 9.37917 3.4625 9.9875C3.10417 10.5958 2.61667 11.0833 2 11.45V14V14V14H18V14M10 8V8V8V8V8V8V8V8V8V8V8V8V8V8V8V8V8V8V8V8V8V8V8V8" fill="var(--fill-0, white)"/>
</g>
</svg>
