<svg preserveAspectRatio="none" width="100%" height="100%" overflow="visible" style="display: block;" viewBox="0 0 20 20" fill="none" xmlns="http://www.w3.org/2000/svg">
<g id="Container">
<path id="Icon" d="M0 5V0H5V2H2V5H0V5M0 20V15H2V18H5V20H0V20M15 20V18H18V15H20V20H15V20M18 5V2H15V0H20V5H18V5M15.5 15.5H17V17H15.5V15.5V15.5M15.5 12.5H17V14H15.5V12.5V12.5M14 14H15.5V15.5H14V14V14M12.5 15.5H14V17H12.5V15.5V15.5M11 14H12.5V15.5H11V14V14M14 11H15.5V12.5H14V11V11M12.5 12.5H14V14H12.5V12.5V12.5M11 11H12.5V12.5H11V11V11M17 3V9H11V3H17V3M9 11V17H3V11H9V11M9 3V9H3V3H9V3M7.5 15.5V12.5H4.5V15.5H7.5V15.5M7.5 7.5V4.5H4.5V7.5H7.5V7.5M15.5 7.5V4.5H12.5V7.5H15.5V7.5" fill="var(--fill-0, white)"/>
</g>
</svg>
