<svg width="60" height="60" viewBox="0 0 60 60" fill="none" xmlns="http://www.w3.org/2000/svg">
<rect x="1" y="1" width="58" height="58" rx="29" stroke="white" stroke-width="2"/>
<circle cx="30" cy="30" r="28" fill="#0D57E2"/>
<path d="M29.9998 49.0672C21.6226 49.0672 17.2058 45.6835 16.8799 39.0024V18.4241C16.8799 14.2981 20.0254 10.9316 23.9043 10.9316C25.8927 10.9316 27.7995 11.8466 29.136 13.4349L29.3478 13.6766C29.5108 13.8837 29.7553 13.9873 29.9998 13.9873C30.2442 13.9873 30.4887 13.8665 30.6517 13.6766L30.8636 13.4349C32.2 11.8466 34.1069 10.9316 36.0952 10.9316C39.9741 10.9316 43.1196 14.2981 43.1196 18.4241V39.0542C42.7937 45.6835 38.3769 49.0672 29.9998 49.0672Z" fill="white"/>
<path d="M36.0954 11.8645C39.4854 11.8645 42.2398 14.7993 42.2398 18.4247V28.9728V39.003C42.1257 41.3164 41.7019 48.1355 30 48.1355C18.298 48.1355 17.8743 41.3164 17.7602 39.003V34.3073V18.4247C17.7602 14.8166 20.5145 11.8645 23.9045 11.8645C25.6484 11.8645 27.3108 12.6586 28.4843 14.057L28.6961 14.2987C29.0384 14.6957 29.511 14.9202 30.0163 14.9202C30.5215 14.9202 30.9941 14.6957 31.3364 14.2987L31.5483 14.057C32.6891 12.6586 34.3678 11.8645 36.0954 11.8645ZM36.0954 10C33.8463 10 31.7113 11.0186 30.1955 12.814L29.9837 13.0557L29.8044 12.814C28.305 11.0186 26.1536 10 23.9045 10C19.5367 10 16 13.7808 16 18.4247V34.3073V39.0548C16.2119 43.1808 17.9721 50 30 50C42.0442 50 43.8044 43.1636 43.9999 39.0548V28.9728V18.4247C44.0162 13.7808 40.4633 10 36.0954 10Z" fill="#0D57E2"/>
<path d="M27.3924 34.6883C27.3924 35.6896 26.773 36.4837 26.0233 36.4837C25.2736 36.4837 24.6543 35.6723 24.6543 34.6883C24.6543 33.687 25.2736 32.8928 26.0233 32.8928C26.773 32.8756 27.3924 33.687 27.3924 34.6883Z" fill="#0D57E2"/>
<path d="M35.7527 34.6883C35.7527 35.6896 35.1334 36.4837 34.3837 36.4837C33.634 36.4837 33.0146 35.6723 33.0146 34.6883C33.0146 33.687 33.634 32.8928 34.3837 32.8928C35.1497 32.8756 35.7527 33.687 35.7527 34.6883Z" fill="#0D57E2"/>
<path d="M30.2118 38.2433C29.6414 38.2433 29.1851 37.8463 29.1851 37.3629C29.1851 36.8795 29.6414 36.4824 30.2118 36.4824C30.7823 36.4824 31.2386 36.8795 31.2386 37.3629C31.2386 37.8463 30.7823 38.2433 30.2118 38.2433Z" fill="white" stroke="#0D57E2" stroke-width="0.6204" stroke-miterlimit="10" stroke-linecap="round" stroke-linejoin="round"/>
<path d="M34.0091 38.3477C34.0091 38.3477 34.3025 42.6636 30.2117 42.6636C26.1209 42.6636 26.4143 38.3477 26.4143 38.3477" stroke="#0D57E2" stroke-width="0.8126" stroke-miterlimit="10" stroke-linecap="round" stroke-linejoin="round"/>
</svg>
