<svg preserveAspectRatio="none" width="100%" height="100%" overflow="visible" style="display: block;" viewBox="0 0 40 40" fill="none" xmlns="http://www.w3.org/2000/svg">
<g id="Container">
<path id="Icon" d="M11 29L25 25L29 11L15 15L11 29V29M20 23C19.1667 23 18.4583 22.7083 17.875 22.125C17.2917 21.5417 17 20.8333 17 20C17 19.1667 17.2917 18.4583 17.875 17.875C18.4583 17.2917 19.1667 17 20 17C20.8333 17 21.5417 17.2917 22.125 17.875C22.7083 18.4583 23 19.1667 23 20C23 20.8333 22.7083 21.5417 22.125 22.125C21.5417 22.7083 20.8333 23 20 23V23M20 40C17.2333 40 14.6333 39.475 12.2 38.425C9.76667 37.375 7.65 35.95 5.85 34.15C4.05 32.35 2.625 30.2333 1.575 27.8C0.525 25.3667 0 22.7667 0 20C0 17.2333 0.525 14.6333 1.575 12.2C2.625 9.76667 4.05 7.65 5.85 5.85C7.65 4.05 9.76667 2.625 12.2 1.575C14.6333 0.525 17.2333 0 20 0C22.7667 0 25.3667 0.525 27.8 1.575C30.2333 2.625 32.35 4.05 34.15 5.85C35.95 7.65 37.375 9.76667 38.425 12.2C39.475 14.6333 40 17.2333 40 20C40 22.7667 39.475 25.3667 38.425 27.8C37.375 30.2333 35.95 32.35 34.15 34.15C32.35 35.95 30.2333 37.375 27.8 38.425C25.3667 39.475 22.7667 40 20 40V40M20 36C24.4333 36 28.2083 34.4417 31.325 31.325C34.4417 28.2083 36 24.4333 36 20C36 15.5667 34.4417 11.7917 31.325 8.675C28.2083 5.55833 24.4333 4 20 4C15.5667 4 11.7917 5.55833 8.675 8.675C5.55833 11.7917 4 15.5667 4 20C4 24.4333 5.55833 28.2083 8.675 31.325C11.7917 34.4417 15.5667 36 20 36V36M20 20V20V20V20V20V20V20V20V20V20" fill="var(--fill-0, #0049E6)"/>
</g>
</svg>
