<svg preserveAspectRatio="none" width="100%" height="100%" overflow="visible" style="display: block;" viewBox="0 0 20 20" fill="none" xmlns="http://www.w3.org/2000/svg">
<g id="Frame 11903">
<path id="Vector" d="M17 0.84375H3C1.9 0.84375 1 1.74375 1 2.84375V16.8438C1 17.3742 1.21071 17.8829 1.58579 18.258C1.96086 18.633 2.46957 18.8438 3 18.8438H17C18.1 18.8438 19 17.9438 19 16.8438V2.84375C19 1.74375 18.1 0.84375 17 0.84375ZM17 16.8438H3V13.8438H6.56C7.25 15.0338 8.53 15.8438 10.01 15.8438C11.49 15.8438 12.76 15.0338 13.46 13.8438H17V16.8438ZM17 11.8438H12.01C12.01 12.9438 11.11 13.8438 10.01 13.8438C8.91 13.8438 8.01 12.9438 8.01 11.8438H3V2.84375H17V11.8438Z" fill="var(--fill-0, #4F4F4F)"/>
</g>
</svg>
