<svg preserveAspectRatio="none" width="100%" height="100%" overflow="visible" style="display: block;" viewBox="0 0 17.9848 19.8316" fill="none" xmlns="http://www.w3.org/2000/svg">
<g id="Group">
<path id="Vector" d="M15.4495 9.91627V6.22684C15.4495 3.61841 15.4495 2.31327 14.6387 1.50344C13.8289 0.691769 12.5238 0.691769 9.91534 0.691769H6.22591C3.61749 0.691769 2.31235 0.691769 1.50252 1.50344C0.691769 2.31327 0.691769 3.61841 0.691769 6.22591V13.6048C0.691769 16.215 0.691769 17.5193 1.50252 18.3291C2.31235 19.1398 3.61749 19.1398 6.22591 19.1398H8.07063" stroke="var(--stroke-0, #4F4F4F)" stroke-width="1.38354" stroke-linecap="round" stroke-linejoin="round"/>
<path id="Vector_2" d="M4.37997 12.6824H8.0694M4.37997 8.99299H11.7588M11.2977 0.691769H4.84115C4.84115 1.99598 4.84115 2.64809 5.24699 3.053C5.65098 3.45884 6.30309 3.45884 7.60822 3.45884H8.53058C9.8348 3.45884 10.4869 3.45884 10.8918 3.053C11.2977 2.64809 11.2977 1.99598 11.2977 0.691769ZM12.4386 18.8189L10.8365 19.1389L11.1565 17.5368C11.2211 17.2112 11.3816 16.9133 11.6168 16.679L15.3662 12.9287C15.4441 12.8506 15.5367 12.7886 15.6386 12.7464C15.7406 12.7041 15.8498 12.6824 15.9602 12.6824C16.0705 12.6824 16.1798 12.7041 16.2817 12.7464C16.3836 12.7886 16.4762 12.8506 16.5542 12.9287L17.0467 13.4212C17.1248 13.4992 17.1867 13.5918 17.229 13.6937C17.2713 13.7956 17.293 13.9049 17.293 14.0152C17.293 14.1256 17.2713 14.2348 17.229 14.3367C17.1867 14.4387 17.1248 14.5313 17.0467 14.6092L13.2973 18.3586C13.0636 18.5944 12.7644 18.7548 12.4386 18.8189Z" stroke="var(--stroke-0, #4F4F4F)" stroke-width="1.38354" stroke-linecap="round" stroke-linejoin="round"/>
</g>
</svg>
