<svg preserveAspectRatio="none" width="100%" height="100%" overflow="visible" style="display: block;" viewBox="0 0 20 20" fill="none" xmlns="http://www.w3.org/2000/svg">
<g id="Frame 11903">
<g id="Vector">
<path d="M3.25 17.4375H6.625V11.8125C6.625 11.4937 6.733 11.2267 6.949 11.0115C7.165 10.7962 7.432 10.6882 7.75 10.6875H12.25C12.5687 10.6875 12.8361 10.7955 13.0521 11.0115C13.2681 11.2275 13.3757 11.4945 13.375 11.8125V17.4375H16.75V7.3125L10 2.25L3.25 7.3125V17.4375ZM1 17.4375V7.3125C1 6.95625 1.07987 6.61875 1.23962 6.3C1.39937 5.98125 1.6195 5.71875 1.9 5.5125L8.65 0.45C9.04375 0.15 9.49375 0 10 0C10.5062 0 10.9562 0.15 11.35 0.45L18.1 5.5125C18.3812 5.71875 18.6017 5.98125 18.7615 6.3C18.9212 6.61875 19.0007 6.95625 19 7.3125V17.4375C19 18.0562 18.7795 18.5861 18.3385 19.0271C17.8975 19.4681 17.368 19.6882 16.75 19.6875H12.25C11.9312 19.6875 11.6642 19.5795 11.449 19.3635C11.2337 19.1475 11.1257 18.8805 11.125 18.5625V12.9375H8.875V18.5625C8.875 18.8812 8.767 19.1486 8.551 19.3646C8.335 19.5806 8.068 19.6882 7.75 19.6875H3.25C2.63125 19.6875 2.10175 19.4674 1.6615 19.0271C1.22125 18.5869 1.00075 18.057 1 17.4375Z" fill="var(--fill-0, #0D57E2)"/>
<path d="M3.25 17.4375H6.625V11.8125C6.625 11.4937 6.733 11.2267 6.949 11.0115C7.165 10.7962 7.432 10.6882 7.75 10.6875H12.25C12.5687 10.6875 12.8361 10.7955 13.0521 11.0115C13.2681 11.2275 13.3757 11.4945 13.375 11.8125V17.4375H16.75V7.3125L10 2.25L3.25 7.3125V17.4375Z" fill="var(--fill-0, #0D57E2)"/>
</g>
</g>
</svg>
