<svg preserveAspectRatio="none" width="100%" height="100%" overflow="visible" style="display: block;" viewBox="0 0 20 20" fill="none" xmlns="http://www.w3.org/2000/svg">
<g id="ri:more-line">
<path id="Vector" d="M2.5 8.5C1.675 8.5 1 9.175 1 10C1 10.825 1.675 11.5 2.5 11.5C3.325 11.5 4 10.825 4 10C4 9.175 3.325 8.5 2.5 8.5ZM17.5 8.5C16.675 8.5 16 9.175 16 10C16 10.825 16.675 11.5 17.5 11.5C18.325 11.5 19 10.825 19 10C19 9.175 18.325 8.5 17.5 8.5ZM10 8.5C9.175 8.5 8.5 9.175 8.5 10C8.5 10.825 9.175 11.5 10 11.5C10.825 11.5 11.5 10.825 11.5 10C11.5 9.175 10.825 8.5 10 8.5Z" fill="var(--fill-0, #4F4F4F)"/>
</g>
</svg>
