<svg preserveAspectRatio="none" width="100%" height="100%" overflow="visible" style="display: block;" viewBox="0 0 20 20" fill="none" xmlns="http://www.w3.org/2000/svg">
<g id="fluent:shifts-activity-20-filled" clip-path="url(#clip0_0_58)">
<path id="Vector" d="M10.0002 1.24453C10.0244 1.48195 9.95323 1.71923 9.80246 1.9042C9.65169 2.08918 9.43362 2.2067 9.19622 2.23093C7.7289 2.38354 6.33484 2.94875 5.17556 3.86108C4.01627 4.77342 3.13919 5.99555 2.64594 7.38588C2.15269 8.77621 2.06345 10.2778 2.38856 11.7168C2.71367 13.1558 3.43983 14.4732 4.4829 15.5164C5.52598 16.5596 6.84328 17.286 8.2822 17.6113C9.72112 17.9366 11.2228 17.8475 12.6132 17.3545C14.0036 16.8614 15.2258 15.9845 16.1383 14.8254C17.0508 13.6662 17.6162 12.2722 17.769 10.8049C17.7794 10.686 17.8133 10.5704 17.8688 10.4647C17.9242 10.359 18.0002 10.2655 18.0921 10.1894C18.1841 10.1134 18.2903 10.0564 18.4045 10.0217C18.5187 9.98711 18.6387 9.97555 18.7574 9.98773C18.8762 9.9999 18.9913 10.0356 19.0961 10.0927C19.2009 10.1497 19.2933 10.2271 19.3679 10.3202C19.4426 10.4134 19.4979 10.5204 19.5308 10.6351C19.5637 10.7499 19.5734 10.87 19.5594 10.9885C19.372 12.7945 18.6766 14.5104 17.5538 15.9373C16.4311 17.3642 14.927 18.4438 13.2158 19.0509C11.5047 19.658 9.65649 19.7677 7.8855 19.3674C6.1145 18.9671 4.4932 18.0732 3.20948 16.7892C1.92575 15.5051 1.03216 13.8836 0.632272 12.1125C0.232381 10.3415 0.342558 8.49332 0.950034 6.78229C1.55751 5.07126 2.63742 3.5674 4.0646 2.44499C5.49178 1.32259 7.20781 0.627586 9.01382 0.440534C9.25123 0.416391 9.48852 0.487526 9.67349 0.638297C9.85847 0.789068 9.97599 1.00713 10.0002 1.24453ZM11.2242 1.16533C11.2517 1.05024 11.3016 0.941697 11.3711 0.845913C11.4406 0.750129 11.5282 0.668985 11.6291 0.607126C11.73 0.545266 11.8421 0.503905 11.9589 0.485408C12.0758 0.466912 12.1952 0.471644 12.3102 0.499334C12.7646 0.608134 13.2058 0.748134 13.6338 0.919334C13.8495 1.01183 14.0204 1.18487 14.1104 1.4016C14.2003 1.61833 14.202 1.8616 14.1151 2.07957C14.0283 2.29754 13.8597 2.47298 13.6454 2.5685C13.4311 2.66402 13.188 2.67207 12.9678 2.59093C12.6198 2.45253 12.2606 2.33893 11.8902 2.25013C11.6583 2.19436 11.4579 2.04876 11.3333 1.84534C11.2086 1.64193 11.1686 1.39734 11.2242 1.16533ZM19.0818 6.36493C18.9935 6.14311 18.8207 5.96545 18.6014 5.87104C18.3821 5.77664 18.1342 5.77322 17.9124 5.86153C17.6906 5.94985 17.5129 6.12267 17.4185 6.34198C17.3241 6.56128 17.3207 6.80911 17.409 7.03093C17.5474 7.37973 17.6614 7.73893 17.751 8.10853C17.8067 8.3407 17.9524 8.54124 18.1559 8.66603C18.2567 8.72782 18.3687 8.76915 18.4854 8.78766C18.6022 8.80618 18.7215 8.80151 18.8364 8.77393C18.9514 8.74636 19.0598 8.69641 19.1554 8.62693C19.2511 8.55746 19.3321 8.46983 19.3939 8.36904C19.4557 8.26825 19.497 8.15628 19.5155 8.03952C19.5341 7.92276 19.5294 7.80349 19.5018 7.68853C19.394 7.23777 19.2536 6.79542 19.0818 6.36493ZM15.1518 2.70733C15.3086 2.52739 15.5304 2.41707 15.7685 2.40064C16.0066 2.38421 16.2414 2.46302 16.4214 2.61973C16.7902 2.94053 17.1334 3.28733 17.451 3.66013C17.6057 3.84202 17.6818 4.0779 17.6625 4.31588C17.6433 4.55387 17.5303 4.77446 17.3484 4.92913C17.1665 5.08381 16.9307 5.15989 16.6927 5.14065C16.4547 5.12141 16.2341 5.00842 16.0794 4.82653C15.8199 4.52376 15.5392 4.23984 15.2394 3.97693C15.0595 3.82017 14.9492 3.59836 14.9327 3.36027C14.9163 3.12219 14.9951 2.88732 15.1518 2.70733ZM10.0038 5.89613C10.0038 5.65744 9.909 5.42852 9.74022 5.25974C9.57143 5.09096 9.34251 4.99613 9.10382 4.99613C8.86513 4.99613 8.63621 5.09096 8.46742 5.25974C8.29864 5.42852 8.20382 5.65744 8.20382 5.89613V11.8961C8.20382 12.3941 8.60702 12.7961 9.10382 12.7961H12.7038C12.9425 12.7961 13.1714 12.7013 13.3402 12.5325C13.509 12.3637 13.6038 12.1348 13.6038 11.8961C13.6038 11.6574 13.509 11.4285 13.3402 11.2597C13.1714 11.091 12.9425 10.9961 12.7038 10.9961H10.0038V5.89613Z" fill="var(--fill-0, #4F4F4F)"/>
</g>
<defs>
<clipPath id="clip0_0_58">
<rect width="20" height="20" fill="white"/>
</clipPath>
</defs>
</svg>
