<svg width="32" height="48" viewBox="0 0 32 48" fill="none" xmlns="http://www.w3.org/2000/svg">
<g filter="url(#filter0_d_2833_26918)">
<path d="M22.4505 4.93962L21.5924 4.70124C17.6353 3.76362 13.8212 3.76362 9.88002 4.71714L9.02185 4.95552C7.27374 5.5753 4 6.70363 4 10.4064L4 19.7668C4 21.1176 4.49265 22.4049 5.36671 23.406L5.36671 33.4974C5.36671 36.0401 7.06714 38.2332 9.45093 38.9325C9.64164 39.2662 9.86412 39.584 10.1343 39.8542C10.6746 40.4581 11.3421 40.9349 12.1208 41.2686C12.3909 42.826 13.7418 44.002 15.3627 44.002H16.1891C17.826 44.002 19.1768 42.8101 19.447 41.2686C20.2098 40.9349 20.8772 40.4581 21.4493 39.8383C21.7036 39.5523 21.9102 39.2503 22.1009 38.9325C24.4847 38.2491 26.1851 36.0401 26.1851 33.4815L26.1851 23.3902C27.0592 22.389 27.5518 21.1017 27.5518 19.7509V10.4064C27.5518 7.83196 25.6925 5.82957 22.4505 4.93962Z" fill="white"/>
</g>
<path d="M19.2404 20.3218C19.3675 20.9734 18.859 21.5932 18.1756 21.5932H13.3921C12.7088 21.5932 12.1843 20.9734 12.3274 20.29L12.375 20.0993L12.5816 19.0981C12.5816 19.0822 12.5975 19.0663 12.5975 19.0505C12.7247 18.5896 13.1379 18.2559 13.6305 18.2559H17.9531C18.4299 18.2559 18.859 18.5896 18.9861 19.0505C18.9861 19.0822 19.002 19.0981 19.002 19.1299L19.1927 20.0993L19.2404 20.3218Z" fill="#FFDC2D"/>
<path d="M22.0211 6.46399L21.2265 6.2415C17.6191 5.39923 14.0434 5.35155 10.3247 6.2415L9.54596 6.46399C7.11449 7.30626 5.58887 8.22799 5.58887 10.4052L5.58887 19.7655C5.58887 20.9574 6.1133 22.0222 6.95557 22.7532V33.4962C6.95557 35.578 8.52888 37.2943 10.5472 37.5327C10.6902 37.93 10.9286 38.375 11.31 38.7882C11.8821 39.4239 12.6767 39.8688 13.662 40.1072V40.6952C13.662 41.6328 14.4248 42.4115 15.3624 42.4115H16.1888C17.1264 42.4115 17.9051 41.6328 17.9051 40.6952V40.1072C18.8904 39.8688 19.6691 39.4239 20.2571 38.7882C20.6226 38.375 20.861 37.9459 20.9882 37.5486C23.0223 37.3102 24.5956 35.5939 24.5956 33.4962L24.5956 22.7532C25.4379 22.0222 25.9623 20.9574 25.9623 19.7655V10.4052C25.9623 8.22799 24.0712 7.0361 22.0211 6.46399ZM12.3747 20.0993L12.5813 19.0981C12.5813 19.0822 12.5972 19.0663 12.5972 19.0504C12.7243 18.5895 13.1375 18.2558 13.6302 18.2558H17.9528C18.4296 18.2558 18.8586 18.5895 18.9858 19.0504C18.9858 19.0822 19.0017 19.0981 19.0017 19.1299L19.1924 20.0993L19.24 20.3218C19.3672 20.9733 18.8586 21.5931 18.1753 21.5931H13.3918C12.7085 21.5931 12.184 20.9733 12.327 20.29L12.3747 20.0993ZM19.4307 36.5156C19.3831 36.7858 19.2718 37.199 18.954 37.5645L18.9381 37.5804C18.6838 37.8506 18.3342 38.073 17.9051 38.2161C17.333 38.4386 16.6179 38.5498 15.7756 38.5498C14.9333 38.5498 14.2182 38.4386 13.662 38.232C13.2329 38.073 12.8992 37.8665 12.6449 37.5963C12.629 37.5804 12.629 37.5804 12.6131 37.5645C12.2953 37.199 12.184 36.8017 12.1363 36.5156C12.1205 36.3408 12.1205 36.2137 12.1205 36.1819V35.2761C12.1205 35.133 12.2317 34.99 12.3747 34.9582L14.2182 34.5609C14.7426 34.4497 15.2671 34.402 15.7756 34.402C16.3 34.402 16.8245 34.4497 17.333 34.5609L19.1924 34.9582C19.3354 34.99 19.4307 35.133 19.4307 35.2761V35.4668L19.4466 36.2614C19.4466 36.2614 19.4466 36.3567 19.4307 36.5156ZM13.8209 30.6515C13.8209 30.3178 13.9003 29.9999 14.0593 29.7298C14.3771 29.11 15.0287 28.6968 15.7756 28.6968C16.5225 28.6968 17.1741 29.11 17.5078 29.7298C17.6667 29.9999 17.7462 30.3178 17.7462 30.6515C17.7462 31.7322 16.8562 32.6062 15.7756 32.6062C14.6949 32.6062 13.8209 31.7322 13.8209 30.6515ZM22.4979 27.632H17.9846C17.3648 27.1712 16.602 26.901 15.7756 26.901C14.9492 26.901 14.2023 27.1712 13.5825 27.632H9.0692V23.6908C9.22812 23.7067 9.38704 23.7226 9.54596 23.7226H22.0211C22.18 23.7226 22.339 23.7067 22.4979 23.6908L22.4979 27.632Z" fill="#0D57E2"/>
<path d="M22.4981 23.6914V27.6326H17.9848C17.365 27.1717 16.6022 26.9016 15.7759 26.9016C14.9495 26.9016 14.2026 27.1717 13.5828 27.6326H9.06946V23.6914C9.22838 23.7073 9.3873 23.7232 9.54622 23.7232H22.0214C22.1803 23.7232 22.3392 23.7073 22.4981 23.6914Z" fill="#171717"/>
<path d="M17.746 30.652C17.746 31.7326 16.856 32.6067 15.7754 32.6067C14.6947 32.6067 13.8207 31.7326 13.8207 30.652C13.8207 30.3182 13.9001 30.0004 14.0591 29.7302C14.3769 29.1105 15.0285 28.6973 15.7754 28.6973C16.5223 28.6973 17.1739 29.1105 17.5076 29.7302C17.6665 30.0004 17.746 30.3182 17.746 30.652Z" fill="#FFDC2D"/>
<path d="M19.4468 36.2617C19.4468 36.2617 19.4468 36.357 19.4309 36.516C19.3832 36.7861 19.272 37.1993 18.9541 37.5648L18.9382 37.5807C18.684 37.8509 18.3344 38.0734 17.9053 38.2164C17.3332 38.4389 16.618 38.5501 15.7758 38.5501C14.9335 38.5501 14.2183 38.4389 13.6621 38.2323C13.233 38.0734 12.8993 37.8668 12.645 37.5966C12.6291 37.5807 12.6291 37.5807 12.6133 37.5648C12.2954 37.1993 12.1842 36.802 12.1365 36.516C12.1206 36.3412 12.1206 36.214 12.1206 36.1822V35.2764C12.1206 35.1334 12.2318 34.9903 12.3749 34.9586L14.2183 34.5613C14.7428 34.45 15.2672 34.4023 15.7758 34.4023C16.3002 34.4023 16.8246 34.45 17.3332 34.5613L19.1925 34.9586C19.3355 34.9903 19.4309 35.1334 19.4309 35.2764V35.4671L19.4468 36.2617Z" fill="#171717"/>
<defs>
<filter id="filter0_d_2833_26918" x="0" y="0" width="31.5519" height="48.002" filterUnits="userSpaceOnUse" color-interpolation-filters="sRGB">
<feFlood flood-opacity="0" result="BackgroundImageFix"/>
<feColorMatrix in="SourceAlpha" type="matrix" values="0 0 0 0 0 0 0 0 0 0 0 0 0 0 0 0 0 0 127 0" result="hardAlpha"/>
<feOffset/>
<feGaussianBlur stdDeviation="2"/>
<feComposite in2="hardAlpha" operator="out"/>
<feColorMatrix type="matrix" values="0 0 0 0 0 0 0 0 0 0 0 0 0 0 0 0 0 0 0.4 0"/>
<feBlend mode="normal" in2="BackgroundImageFix" result="effect1_dropShadow_2833_26918"/>
<feBlend mode="normal" in="SourceGraphic" in2="effect1_dropShadow_2833_26918" result="shape"/>
</filter>
</defs>
</svg>
